# xmcd
# 
# Track frame offsets:
#     150
#     5385
#     20707
#     37427
#     55468
#     73279
#     94894
#     115087
#     133723
#     152171
#     166811
# 
# Disc length: 2456
# 
# Revision: 1
# Processed by: cddbd v1.5.2PL0 Copyright (c) Steve Scherf et al.
# Submitted via: BonkEnc v1.0.6
# 
DISCID=9c09960b
DTITLE=BRUNOROCK - Interaction
DYEAR=2005
DGENRE=Hard Rock
TTITLE0=Interaction (Intro)
TTITLE1=It's All Been Done 4 Me
TTITLE2=Now Dies The Truth
TTITLE3=Pray For The Rain
TTITLE4=Let Me Be The One
TTITLE5=Castaway
TTITLE6=Take The Trophy
TTITLE7=Hard Working Day
TTITLE8=No More Promises
TTITLE9=One Way One Life
TTITLE10=La Fonte Dei Sogni
EXTD=YEAR: 2005
EXTT0=
EXTT1=
EXTT2=
EXTT3=
EXTT4=
EXTT5=
EXTT6=
EXTT7=
EXTT8=
EXTT9=
EXTT10=
PLAYORDER=
